<svg width="1920" height="489" viewBox="0 0 1920 489" fill="none" xmlns="http://www.w3.org/2000/svg">
<path d="M0 489L1920 489L1920 65L1717.73 126.02C1610.02 158.512 1497.2 170.614 1385.05 161.706L683.788 106.001C506.903 91.95 329.795 130.266 174.535 216.174L1.54084e-05 312.748L0 489Z" fill="#F3B048"/>
<path d="M0 489L1920 489L1920 157.431L1730.23 78.1983C1567.42 10.2211 1388.28 -8.62798 1214.88 23.9746L495.752 159.19C388.796 179.3 279.088 179.933 171.908 161.057L3.13165e-05 130.781L0 489Z" fill="#D96930" fill-opacity="0.86"/>
<path d="M1851 489C1851 403.866 1817.18 322.218 1756.98 262.019C1696.78 201.82 1615.13 168 1530 168C1444.87 168 1363.22 201.82 1303.02 262.019C1242.82 322.218 1209 403.865 1209 489L1530 489H1851Z" fill="#AD3635" fill-opacity="0.3"/>
</svg>
