<svg width="53" height="53" viewBox="0 0 53 53" fill="none" xmlns="http://www.w3.org/2000/svg">
<path d="M50.9599 36.8543C52.2813 33.7096 52.9743 30.3385 53 26.9298V26.6727C52.978 22.1035 51.7585 17.6191 49.4621 13.6629C47.7794 10.5929 45.497 7.88892 42.7491 5.7102C40.0011 3.53148 36.8433 1.92201 33.4613 0.976511C30.0793 0.0310097 26.5415 -0.231424 23.0561 0.204653C19.5707 0.64073 16.2082 1.76651 13.1663 3.51574C10.1245 5.26497 7.46473 7.60231 5.34368 10.3902C3.22263 13.1781 1.6831 16.3603 0.81568 19.7494C-0.0517361 23.1385 -0.229511 26.6662 0.292816 30.1247C0.815143 33.5833 2.02702 36.9029 3.85713 39.8882C4.37075 40.788 4.93997 41.6553 5.56151 42.485L5.61316 42.5364C9.47781 47.6585 15.0934 51.1932 21.3983 52.4724C27.7032 53.7515 34.2603 52.6864 39.8298 49.4784C44.6948 46.6982 48.5334 42.4348 50.7791 37.3171C50.8505 37.1673 50.9109 37.0127 50.9599 36.8543ZM16.4075 6.00107C18.634 4.91167 21.0239 4.19088 23.4833 3.86706C27.7771 5.86613 31.3479 9.134 33.7096 13.2259C35.8413 16.8645 36.9143 21.0218 36.8084 25.2329H27.5635L16.4075 6.00107ZM27.5635 28.3182H49.8495C49.6683 30.7817 49.102 33.202 48.1709 35.4916C44.4895 38.0395 40.1463 39.4729 35.6652 39.6189C31.184 39.7649 26.7561 38.6172 22.9152 36.3143L27.5635 28.3182ZM46.7764 15.2056C48.5672 18.2658 49.6193 21.6986 49.8495 25.2329H39.9073C40.008 20.481 38.7929 15.7932 36.3952 11.6832C34.6184 8.61824 32.238 5.9422 29.397 3.81563C32.9859 4.23132 36.4272 5.47804 39.4451 7.45593C42.4631 9.43382 44.9739 12.0879 46.7764 15.2056ZM13.7219 7.54373L18.68 16.1055C15.0388 18.1261 11.929 20.9751 9.6043 24.4201C7.27958 27.8652 5.80582 31.8086 5.30327 35.9287C3.1704 30.9612 2.84421 25.4087 4.38088 20.2275C5.91754 15.0463 9.22086 10.5609 13.7219 7.54373ZM8.32466 40.9937C7.90398 36.2832 8.95951 31.5586 11.3461 27.4697C13.458 23.8223 16.5294 20.8177 20.2295 18.7794L24.8778 26.7756L13.7219 46.0074C11.6712 44.6267 9.85007 42.935 8.32466 40.9937ZM38.2804 46.8044C34.9765 48.7099 31.2508 49.7727 27.4347 49.8983C23.6187 50.0239 19.8306 49.2084 16.4075 47.5243L21.3657 38.9883C24.9404 41.1181 28.9706 42.3752 33.1269 42.6568C37.2831 42.9383 41.4472 42.2362 45.2787 40.6081C43.3983 43.1303 41.016 45.2397 38.2804 46.8044Z" fill="#EF7B00"/>
</svg>
