<svg width="75" height="59" viewBox="0 0 75 59" fill="none" xmlns="http://www.w3.org/2000/svg">
<path d="M72.0312 0.28125H2.96875C1.49951 0.28125 0.3125 1.46826 0.3125 2.9375V56.0625C0.3125 57.5317 1.49951 58.7188 2.96875 58.7188H72.0312C73.5005 58.7188 74.6875 57.5317 74.6875 56.0625V2.9375C74.6875 1.46826 73.5005 0.28125 72.0312 0.28125ZM68.7109 9.47851V52.7422H6.28906V9.47851L3.99805 7.69385L7.26025 3.50195L10.813 6.26611H64.1953L67.748 3.50195L71.0103 7.69385L68.7109 9.47851ZM64.1953 6.25781L37.5 27.0098L10.8047 6.25781L7.25195 3.49365L3.98975 7.68555L6.28076 9.47022L34.6362 31.5171C35.4517 32.1506 36.4549 32.4945 37.4875 32.4945C38.5202 32.4945 39.5234 32.1506 40.3389 31.5171L68.7109 9.47851L71.002 7.69385L67.7397 3.50195L64.1953 6.25781Z" fill="#EF7B00"/>
</svg>
