<svg width="53" height="53" viewBox="0 0 53 53" fill="none" xmlns="http://www.w3.org/2000/svg">
<path d="M31.058 19.133C31.24 18.9377 31.4594 18.7811 31.7032 18.6725C31.947 18.5639 32.2102 18.5054 32.477 18.5007C32.7439 18.496 33.009 18.5451 33.2564 18.6451C33.5039 18.745 33.7287 18.8938 33.9174 19.0826C34.1062 19.2713 34.255 19.4961 34.3549 19.7436C34.4549 19.991 34.504 20.2561 34.4993 20.523C34.4946 20.7898 34.4361 21.053 34.3275 21.2968C34.2189 21.5406 34.0623 21.76 33.867 21.942L21.942 33.867C21.76 34.0623 21.5406 34.2189 21.2968 34.3275C21.053 34.4361 20.7898 34.4946 20.523 34.4993C20.2561 34.504 19.991 34.4549 19.7436 34.3549C19.4961 34.255 19.2713 34.1062 19.0826 33.9174C18.8938 33.7287 18.745 33.5039 18.6451 33.2564C18.5451 33.009 18.496 32.7439 18.5007 32.477C18.5054 32.2102 18.5639 31.947 18.6725 31.7032C18.7811 31.4594 18.9377 31.24 19.133 31.058L31.058 19.133ZM41.7375 0C44.7245 0 47.5892 1.18658 49.7013 3.29871C51.8134 5.41084 53 8.2755 53 11.2625V13.9125C53 35.4994 35.4994 53 13.9125 53H11.2625C8.2755 53 5.41084 51.8134 3.29871 49.7013C1.18658 47.5892 0 44.7245 0 41.7375V39.0875C0 17.5006 17.5006 0 39.0875 0H41.7375ZM49.025 11.2625C49.025 9.32973 48.2572 7.47613 46.8905 6.10946C45.5239 4.74279 43.6703 3.975 41.7375 3.975H39.0875C38.0196 3.975 36.9622 4.0227 35.9181 4.11545L48.8846 17.0819C48.9773 16.0378 49.025 14.9805 49.025 13.9125V11.2625ZM48.1054 21.9261L31.0739 4.89455C24.6632 6.4023 18.8046 9.67996 14.1655 14.3543C9.52629 19.0286 6.29294 24.9117 4.8336 31.3336L21.6664 48.1664C28.0885 46.7074 33.9717 43.4741 38.6461 38.8349C43.3204 34.1957 46.598 28.337 48.1054 21.9261ZM4.08895 36.2122C4.01475 37.1609 3.975 38.1203 3.975 39.0875V41.7375C3.975 43.6703 4.74279 45.5239 6.10946 46.8905C7.47613 48.2572 9.32973 49.025 11.2625 49.025H13.9125C14.8798 49.025 15.8391 48.9852 16.7878 48.9084L4.0916 36.2122H4.08895Z" fill="#AD3635"/>
</svg>
