<svg width="49" height="50" viewBox="0 0 49 50" fill="none" xmlns="http://www.w3.org/2000/svg">
<path d="M24.5 48.25C37.1335 48.25 47.375 37.8406 47.375 25C47.375 12.1594 37.1335 1.75 24.5 1.75C11.8665 1.75 1.625 12.1594 1.625 25C1.625 37.8406 11.8665 48.25 24.5 48.25Z" stroke="#EF7B00" stroke-width="3" stroke-linecap="round" stroke-linejoin="round"/>
<path d="M12.4017 20.9958L2.89584 17.25M24.5 12.0833L36.5983 20.9958L32.125 35.3333H16.875L12.4017 20.9958L24.5 12.0833ZM24.5 12.0833V1.75V12.0833ZM32.125 35.3333L38.4792 43.0833L32.125 35.3333ZM36.5983 20.9958L46.1042 17.25L36.5983 20.9958ZM17.0275 35.4625L10.5208 43.0833L17.0275 35.4625Z" stroke="#EF7B00" stroke-width="3" stroke-linecap="round" stroke-linejoin="round"/>
</svg>
