<svg width="75" height="61" viewBox="0 0 75 61" fill="none" xmlns="http://www.w3.org/2000/svg">
<path d="M75 7.18553C72.2419 8.39979 69.279 9.22024 66.1642 9.59108C69.3781 7.6804 71.7826 4.67321 72.929 1.13064C69.9094 2.91261 66.6047 4.16693 63.1584 4.83905C60.8409 2.38055 57.7713 0.751019 54.4261 0.203446C51.081 -0.344127 47.6474 0.220897 44.6586 1.81079C41.6698 3.40069 39.2928 5.92651 37.8969 8.9961C36.5009 12.0657 36.164 15.5073 36.9385 18.7866C30.8201 18.4814 24.8347 16.9014 19.3707 14.1492C13.9067 11.3969 9.08628 7.53393 5.22219 2.81091C3.90095 5.07534 3.14124 7.70077 3.14124 10.4969C3.13977 13.014 3.76365 15.4925 4.95754 17.7126C6.15143 19.9327 7.87841 21.8257 9.98525 23.2236C7.54187 23.1464 5.1524 22.4904 3.01572 21.3103V21.5072C3.01548 25.0376 4.24458 28.4593 6.49448 31.1918C8.74438 33.9243 11.8765 35.7992 15.3594 36.4984C13.0927 37.1079 10.7163 37.1977 8.40967 36.761C9.39233 39.7986 11.3065 42.455 13.8841 44.3581C16.4617 46.2612 19.5738 47.3158 22.7847 47.3743C17.3341 51.6255 10.6026 53.9316 3.67304 53.9214C2.44555 53.9218 1.21909 53.8505 0 53.7081C7.03385 58.2015 15.2218 60.5862 23.5841 60.5769C51.8916 60.5769 67.3666 37.2828 67.3666 17.0801C67.3666 16.4238 67.35 15.7608 67.3203 15.1045C70.3304 12.9417 72.9287 10.2635 74.9934 7.19538L75 7.18553V7.18553Z" fill="white"/>
</svg>
