<svg width="62" height="62" viewBox="0 0 62 62" fill="none" xmlns="http://www.w3.org/2000/svg">
<path fill-rule="evenodd" clip-rule="evenodd" d="M7.30597 1.977C7.98398 1.29996 8.79811 0.774759 9.69443 0.436191C10.5908 0.0976235 11.5488 -0.0465757 12.505 0.0131493C13.4613 0.0728744 14.394 0.33516 15.2412 0.782624C16.0884 1.23009 16.8309 1.85251 17.4194 2.60865L24.3748 11.5448C25.6496 13.184 26.0991 15.3192 25.5954 17.3343L23.4758 25.821C23.3663 26.2605 23.3722 26.721 23.493 27.1576C23.6139 27.5942 23.8456 27.9921 24.1656 28.3127L33.6861 37.834C34.0071 38.1547 34.4057 38.3868 34.843 38.5077C35.2803 38.6285 35.7415 38.6341 36.1816 38.5238L44.6637 36.4041C45.658 36.1554 46.6959 36.1361 47.6988 36.3476C48.7017 36.5591 49.6434 36.9958 50.4527 37.6248L59.3882 44.5768C62.6005 47.0763 62.895 51.8234 60.0198 54.6949L56.0132 58.7019C53.1458 61.5695 48.8602 62.8289 44.8652 61.4222C34.6401 57.8242 25.3562 51.97 17.7023 44.2939C10.0273 36.6405 4.17355 27.3573 0.575307 17.1328C-0.827399 13.1414 0.431936 8.85157 3.29935 5.98393L7.30597 1.977Z" fill="#EF7B00"/>
</svg>
