<svg width="50" height="50" viewBox="0 0 50 50" fill="none" xmlns="http://www.w3.org/2000/svg">
<path d="M24.8438 9.1891e-05C19.9302 7.66375e-05 15.1269 1.45713 11.0413 4.18699C6.9558 6.91686 3.7715 10.7969 1.89113 15.3365C0.0107623 19.8761 -0.481227 24.8714 0.477381 29.6906C1.43599 34.5099 3.80214 38.9366 7.27662 42.4111C11.9357 47.0702 18.2549 49.6876 24.8438 49.6876C31.4328 49.6876 37.7519 47.0702 42.4111 42.4111C47.0702 37.7519 49.6876 31.4328 49.6876 24.8438C49.6876 18.2549 47.0702 11.9357 42.4111 7.27662C40.1095 4.96245 37.3717 3.12775 34.3563 1.87874C31.3409 0.629721 28.1077 -0.008814 24.8438 9.1891e-05ZM9.49879 9.75644C9.78932 10.1584 10.0704 10.5886 10.3419 11.0469C12.2738 14.3172 13.4291 18.5792 13.6529 23.1876H3.37563C3.76494 18.1275 5.93431 13.369 9.49879 9.75644ZM9.49879 39.9312C5.93431 36.3187 3.76494 31.5602 3.37563 26.5001H13.6529C13.4291 31.1085 12.2738 35.3704 10.3419 38.6408C10.0711 39.0995 9.79001 39.5296 9.49879 39.9312ZM23.1876 46.312C19.1368 46.0028 15.2576 44.5476 12.0028 42.1164C12.4321 41.5415 12.8298 40.9437 13.194 40.3255C15.4178 36.5609 16.7376 31.7027 16.9693 26.5001H23.1876V46.312ZM23.1876 23.1876H16.9693C16.7376 17.9852 15.4178 13.1268 13.194 9.36215C12.8298 8.74399 12.4321 8.14617 12.0028 7.57133C15.2576 5.14011 19.1368 3.68492 23.1876 3.37563V23.1876ZM26.5001 3.37563C30.5509 3.68492 34.4301 5.14011 37.6848 7.57133C37.2555 8.14617 36.8579 8.74399 36.4937 9.36215C34.2699 13.1268 32.95 17.985 32.7184 23.1876H26.5001V3.37563ZM26.5001 46.312V26.5001H32.7184C32.95 31.7025 34.2699 36.5609 36.4937 40.3255C36.8579 40.9437 37.2555 41.5415 37.6848 42.1164C34.4301 44.5476 30.5509 46.0028 26.5001 46.312ZM40.1889 39.9312C39.8984 39.5293 39.6173 39.0992 39.3458 38.6408C37.4138 35.3704 36.2586 31.1085 36.0348 26.5001H46.312C45.9227 31.5602 43.7534 36.3187 40.1889 39.9312ZM36.0348 23.1876C36.2586 18.5792 37.4138 14.3172 39.3458 11.0469C39.6166 10.5882 39.8977 10.1581 40.1889 9.75644C43.7534 13.369 45.9227 18.1275 46.312 23.1876H36.0348Z" fill="#AD3635"/>
</svg>
