<svg width="69" height="69" viewBox="0 0 69 69" fill="none" xmlns="http://www.w3.org/2000/svg">
<path fill-rule="evenodd" clip-rule="evenodd" d="M20.2766 0.207C23.9555 0.0376363 25.1285 0 34.5 0C43.8715 0 45.0445 0.0407727 48.7203 0.207C52.3961 0.373227 54.9052 0.959727 57.1006 1.80968C59.3996 2.67845 61.4853 4.0365 63.2103 5.79286C64.9666 7.51473 66.3216 9.59727 67.1872 11.8994C68.0403 14.0948 68.6236 16.6039 68.793 20.2735C68.9624 23.9587 69 25.1317 69 34.5C69 43.8715 68.9592 45.0445 68.793 48.7234C68.6268 52.393 68.0403 54.902 67.1872 57.0975C66.3215 59.3999 64.9644 61.4859 63.2103 63.2103C61.4853 64.9666 59.3996 66.3216 57.1006 67.1872C54.9052 68.0403 52.3961 68.6236 48.7265 68.793C45.0445 68.9624 43.8715 69 34.5 69C25.1285 69 23.9555 68.9592 20.2766 68.793C16.607 68.6268 14.098 68.0403 11.9025 67.1872C9.60016 66.3214 7.51416 64.9643 5.78973 63.2103C4.03456 61.4874 2.67631 59.4024 1.80968 57.1006C0.959727 54.9052 0.376364 52.3961 0.207 48.7265C0.0376363 45.0413 0 43.8683 0 34.5C0 25.1285 0.0407727 23.9555 0.207 20.2797C0.373227 16.6039 0.959727 14.0948 1.80968 11.8994C2.67759 9.59753 4.03687 7.51257 5.79286 5.78973C7.51485 4.03494 9.59875 2.67671 11.8994 1.80968C14.0948 0.959727 16.6039 0.376364 20.2735 0.207H20.2766ZM48.4411 6.417C44.803 6.25077 43.7115 6.21627 34.5 6.21627C25.2885 6.21627 24.197 6.25077 20.5589 6.417C17.1935 6.57068 15.3682 7.13209 14.1513 7.60568C12.5423 8.23295 11.3913 8.97627 10.1838 10.1838C9.03914 11.2973 8.15825 12.653 7.60568 14.1513C7.13209 15.3682 6.57068 17.1935 6.417 20.5589C6.25077 24.197 6.21627 25.2885 6.21627 34.5C6.21627 43.7115 6.25077 44.803 6.417 48.4411C6.57068 51.8065 7.13209 53.6318 7.60568 54.8487C8.15768 56.3448 9.039 57.7028 10.1838 58.8162C11.2972 59.961 12.6552 60.8423 14.1513 61.3943C15.3682 61.8679 17.1935 62.4293 20.5589 62.583C24.197 62.7492 25.2854 62.7837 34.5 62.7837C43.7146 62.7837 44.803 62.7492 48.4411 62.583C51.8065 62.4293 53.6318 61.8679 54.8487 61.3943C56.4577 60.767 57.6087 60.0237 58.8162 58.8162C59.961 57.7028 60.8423 56.3448 61.3943 54.8487C61.8679 53.6318 62.4293 51.8065 62.583 48.4411C62.7492 44.803 62.7837 43.7115 62.7837 34.5C62.7837 25.2885 62.7492 24.197 62.583 20.5589C62.4293 17.1935 61.8679 15.3682 61.3943 14.1513C60.767 12.5423 60.0237 11.3913 58.8162 10.1838C57.7026 9.03922 56.347 8.15834 54.8487 7.60568C53.6318 7.13209 51.8065 6.57068 48.4411 6.417V6.417ZM30.0934 45.1354C32.5544 46.1598 35.2947 46.2981 37.8463 45.5266C40.3979 44.7551 42.6025 43.1216 44.0835 40.9052C45.5646 38.6888 46.2302 36.027 45.9667 33.3744C45.7032 30.7217 44.527 28.2429 42.6389 26.3611C41.4352 25.1583 39.9799 24.2372 38.3776 23.6643C36.7753 23.0914 35.0659 22.8809 33.3725 23.0479C31.679 23.215 30.0437 23.7554 28.5842 24.6303C27.1247 25.5052 25.8773 26.6928 24.9319 28.1076C23.9865 29.5225 23.3665 31.1293 23.1166 32.8125C22.8667 34.4957 22.9932 36.2134 23.4868 37.8418C23.9804 39.4703 24.829 40.9691 25.9714 42.2303C27.1137 43.4914 28.5215 44.4836 30.0934 45.1354ZM21.9608 21.9608C23.6075 20.3141 25.5624 19.0079 27.7138 18.1168C29.8653 17.2256 32.1713 16.7669 34.5 16.7669C36.8287 16.7669 39.1347 17.2256 41.2862 18.1168C43.4376 19.0079 45.3925 20.3141 47.0392 21.9608C48.6859 23.6075 49.9921 25.5624 50.8832 27.7138C51.7744 29.8653 52.2331 32.1713 52.2331 34.5C52.2331 36.8287 51.7744 39.1347 50.8832 41.2862C49.9921 43.4376 48.6859 45.3925 47.0392 47.0392C43.7136 50.3648 39.2031 52.2331 34.5 52.2331C29.7969 52.2331 25.2864 50.3648 21.9608 47.0392C18.6352 43.7136 16.7669 39.2031 16.7669 34.5C16.7669 29.7969 18.6352 25.2864 21.9608 21.9608V21.9608ZM56.166 19.4078C56.5741 19.0229 56.9007 18.56 57.1267 18.0466C57.3526 17.5331 57.4733 16.9795 57.4814 16.4186C57.4896 15.8577 57.3852 15.3009 57.1743 14.7811C56.9634 14.2613 56.6504 13.7891 56.2537 13.3924C55.857 12.9957 55.3848 12.6827 54.865 12.4718C54.3452 12.2609 53.7883 12.1565 53.2274 12.1646C52.6665 12.1728 52.113 12.2935 51.5995 12.5194C51.0861 12.7454 50.6232 13.072 50.2383 13.4801C49.4897 14.2737 49.0798 15.3278 49.0957 16.4186C49.1116 17.5095 49.552 18.5512 50.3234 19.3226C51.0949 20.0941 52.1366 20.5345 53.2274 20.5504C54.3183 20.5663 55.3724 20.1564 56.166 19.4078V19.4078Z" fill="white"/>
</svg>
