<svg width="226" height="360" viewBox="0 0 226 360" fill="none" xmlns="http://www.w3.org/2000/svg">
<path d="M224.607 160.606C223.434 161.953 220.151 161.251 219.155 160.489C202.505 147.255 185.562 133.963 166.333 118.62C164.457 117.098 161.643 118.737 161.994 121.138C174.54 202.417 186.265 278.601 197.991 354.726C197.873 359.001 194.473 360.641 190.897 357.01C172.254 320.06 162.815 279.655 147.69 240.655C146.634 237.903 142.531 238.664 142.472 241.592C142.413 249.79 142.472 257.93 144.758 265.425C147.748 275.38 154.725 284.164 161.115 293.826C162.346 295.7 160.822 298.218 158.535 297.984C131.333 295.114 117.439 281.646 113.511 254.943C108.352 219.809 103.779 184.557 98.737 149.422C98.0335 144.562 96.2747 139.818 94.4573 133.904C93.9883 132.382 92.2881 131.562 90.7639 132.206C67.3721 142.629 45.2115 152.467 22.9923 162.363C21.3508 163.417 19.2989 162.188 20.4128 160.138C21.2335 159.084 26.0995 152.818 29.4412 149.656C48.6705 131.386 68.8378 113.409 90.8225 98.7692C127.464 74.3505 166.098 79.445 195.763 112.062C207.312 124.769 216.927 139.76 224.665 155.336C225.31 156.625 225.662 159.728 224.607 160.606ZM115.739 80.909C131.919 81.3189 143.586 68.7875 143.644 50.9859C143.703 33.7698 131.157 19.5988 116.149 20.0087C101.903 20.4186 89.7086 34.4139 89.4741 50.5174C89.3568 66.9136 101.082 80.4991 115.739 80.909Z" fill="url(#paint0_linear_468_1903)"/>
<path d="M79.9131 305.103C64.6118 304.752 52.359 316.346 52.0072 331.454C51.6555 346.738 63.791 359.328 79.0338 359.387C94.2765 359.445 107.233 345.684 106.353 330.459C105.533 316.522 94.2179 305.455 79.9131 305.103Z" fill="url(#paint1_linear_468_1903)"/>
<path d="M204.607 140.606C203.434 141.953 200.151 141.251 199.155 140.489C182.505 127.255 165.562 113.963 146.333 98.6204C144.457 97.0979 141.643 98.7375 141.994 101.138C154.54 182.417 166.265 258.601 177.991 334.726C177.873 339.001 174.473 340.641 170.897 337.01C152.254 300.06 142.815 259.655 127.69 220.655C126.634 217.903 122.531 218.664 122.472 221.592C122.413 229.79 122.472 237.93 124.758 245.425C127.748 255.38 134.725 264.164 141.115 273.826C142.346 275.7 140.822 278.218 138.535 277.984C111.333 275.114 97.4387 261.646 93.5107 234.943C88.3516 199.809 83.7788 164.557 78.737 129.422C78.0335 124.562 76.2747 119.818 74.4573 113.904C73.9883 112.381 72.2881 111.562 70.7639 112.206C47.3721 122.629 25.2115 132.467 2.99232 142.363C1.35079 143.417 -0.701113 142.188 0.412779 140.138C1.23354 139.084 6.09949 132.818 9.44117 129.656C28.6705 111.386 48.8378 93.4087 70.8225 78.7692C107.464 54.3505 146.098 59.445 175.763 92.0619C187.312 104.769 196.927 119.76 204.665 135.336C205.31 136.625 205.662 139.728 204.607 140.606ZM95.7385 60.909C111.919 61.3189 123.586 48.7875 123.644 30.9859C123.703 13.7698 111.157 -0.401231 96.1489 0.00867491C81.9028 0.418581 69.7086 14.4139 69.4741 30.5174C69.3568 46.9136 81.082 60.4991 95.7385 60.909Z" fill="url(#paint2_linear_468_1903)" fill-opacity="0.2"/>
<path d="M59.9131 285.103C44.6118 284.752 32.359 296.346 32.0072 311.454C31.6555 326.738 43.791 339.328 59.0338 339.387C74.2765 339.445 87.2328 325.684 86.3534 310.459C85.5327 296.522 74.2179 285.455 59.9131 285.103Z" fill="url(#paint3_linear_468_1903)" fill-opacity="0.2"/>
<defs>
<linearGradient id="paint0_linear_468_1903" x1="122.727" y1="358.976" x2="122.727" y2="20.0145" gradientUnits="userSpaceOnUse">
<stop stop-color="#F0A94C" stop-opacity="0.7"/>
<stop offset="0.0363128" stop-color="#F2B050"/>
<stop offset="0.419" stop-color="#D9692E"/>
</linearGradient>
<linearGradient id="paint1_linear_468_1903" x1="79.2007" y1="359.397" x2="79.2007" y2="305.098" gradientUnits="userSpaceOnUse">
<stop stop-color="#F5C17C"/>
<stop offset="1" stop-color="#EB9843"/>
</linearGradient>
<linearGradient id="paint2_linear_468_1903" x1="102.727" y1="338.976" x2="102.727" y2="0.0145467" gradientUnits="userSpaceOnUse">
<stop stop-color="#F0A94C" stop-opacity="0.7"/>
<stop offset="0.0363128" stop-color="#F2B050"/>
<stop offset="0.419" stop-color="#D9692E"/>
</linearGradient>
<linearGradient id="paint3_linear_468_1903" x1="59.2007" y1="339.397" x2="59.2007" y2="285.098" gradientUnits="userSpaceOnUse">
<stop stop-color="#F5C17C"/>
<stop offset="1" stop-color="#EB9843"/>
</linearGradient>
</defs>
</svg>
